{"title":"Robot.Revolution.2015.DVDRip.x264-MenaceIISociety","uid":12007300,"size":1296464072,"categoryP":"video","categoryS":"movies","magnet":"?xt=urn:btih:3c2a399c438db5e7a20d8402716596d704694d77&amp;dn=Robot.Revolution.2015.DVDRip.x264-MenaceIISociety&amp;tr=udp%3A%2F%2Ftracker.openbittorrent.com%3A80&amp;tr=udp%3A%2F%2Fopen.demonii.com%3A1337&amp;tr=udp%3A%2F%2Ftracker.coppersurfer.tk%3A6969&amp;tr=udp%3A%2F%2Fexodus.desync.com%3A6969","seeders":12,"leechers":5,"uploader":"xxxlavalxxx","files":4,"time":1433945893,"description":" &lt;a href=&quot;http://extraimago.com/image/j1W&quot; rel=&quot;nofollow&quot; target=&quot;_NEW&quot;&gt;http://extraimago.com/image/j1W&lt;/a&gt;\n\n &lt;a href=&quot;\nhttp://www.imdb.com/title/tt4333578/&quot; rel=&quot;nofollow&quot; target=&quot;_NEW&quot;&gt;\nhttp://www.imdb.com/title/tt4333578/&lt;/a&gt;\n\n\nIn a not-too-distant future where every aspect of society is controlled by machines, terrorism has forced the state to institute martial law. While performing a routine check in a high-rise apartment, a well-armed police officer and her android partner discover that something is causing the buildings' residents to &quot;malfunction,&quot; forcing them to fight their way out. However, as they investigate the malfunction further, they uncover a secret that the government would do anything to cover up.\n\nDirector: Andrew Bellware\nWriter: Steven J. Niles\nStars: Virginia Logan, Mary Murphy, Matthew Trumbull\nGenres: Sci-Fi\nCountry: USA\nLanguage: English\n\n\nSource: DVD5.NTSC-Ezycolo [THANKS]\n\nGeneral\nComplete name                            : Robot.Revolution.2015.DVDRip.x264-MenaceIISociety.mkv\nFormat                                   : Matroska\nFormat version                           : Version 2\nFile size                                : 1.19 GiB\nDuration                                 : 1h 21mn\nOverall bit rate mode                    : Variable\nOverall bit rate                         : 2 083 Kbps\nEncoded date                             : UTC 2015-06-10 11:38:01\nWriting application                      : mkvmerge v7.9.0 ('Birds') 32bit\nWriting library                          : libebml v1.3.1 + libmatroska v1.4.2\n\nVideo\nID                                       : 1\nFormat                                   : AVC\nFormat/Info                              : Advanced Video Codec\nFormat profile                           : &lt;a class=&quot;__cf_email__&quot; href=&quot;/cdn-cgi/l/email-protection&quot; data-cfemail=&quot;3e765759567e720a100f&quot;&gt;[email&amp;#160;protected]&lt;/a&gt;&lt;script data-cfhash='f9e31' type=&quot;text/javascript&quot;&gt;\n/* &lt;![CDATA[ */!function(){try{var t=&quot;currentScript&quot;in document?document.currentScript:function(){for(var t=document.getElementsByTagName(&quot;script&quot;),e=t.length;e--;)if(t[e].getAttribute(&quot;data-cfhash&quot;))return t[e]}();if(t&amp;&amp;t.previousSibling){var e,r,n,i,c=t.previousSibling,a=c.getAttribute(&quot;data-cfemail&quot;);if(a){for(e=&quot;&quot;,r=parseInt(a.substr(0,2),16),n=2;a.length-n;n+=2)i=parseInt(a.substr(n,2),16)^r,e+=String.fromCharCode(i);e=document.createTextNode(e),c.parentNode.replaceChild(e,c)}t.parentNode.removeChild(t);}}catch(u){}}()/* ]]&gt; */&lt;/script&gt;\nFormat settings, CABAC                   : Yes\nFormat settings, ReFrames                : 3 frames\nCodec ID                                 : V_MPEG4/ISO/AVC\nDuration                                 : 1h 21mn\nBit rate mode                            : Variable\nBit rate                                 : 1 657 Kbps\nMaximum bit rate                         : 40.0 Mbps\nWidth                                    : 720 pixels\nHeight                                   : 304 pixels\nDisplay aspect ratio                     : 2.35:1\nFrame rate mode                          : Constant\nFrame rate                               : 23.976 fps\nColor space                              : YUV\nChroma subsampling                       : 4:2:0\nBit depth                                : 8 bits\nScan type                                : Progressive\nBits/(Pixel*Frame)                       : 0.316\nStream size                              : 968 MiB (80%)\nWriting library                          : x264 core 146 r2538 121396c\n\nAudio\nID                                       : 2\nFormat                                   : AC-3\nFormat/Info                              : Audio Coding 3\nMode extension                           : CM (complete main)\nFormat settings, Endianness              : Big\nCodec ID                                 : A_AC3\nDuration                                 : 1h 21mn\nBit rate mode                            : Constant\nBit rate                                 : 384 Kbps\nChannel count                            : 6 channels\nChannel positions                        : Front: L C R, Side: L R, LFE\nSampling rate                            : 48.0 KHz\nBit depth                                : 16 bits\nCompression mode                         : Lossy\nStream size                              : 224 MiB (18%)\nLanguage                                 : English\nDefault                                  : Yes\nForced                                   : No\n &lt;a href=&quot;\nhttp://extraimago.com/image/j1f&quot; rel=&quot;nofollow&quot; target=&quot;_NEW&quot;&gt;\nhttp://extraimago.com/image/j1f&lt;/a&gt; &lt;a href=&quot;\nhttp://extraimago.com/image/jE8&quot; rel=&quot;nofollow&quot; target=&quot;_NEW&quot;&gt;\nhttp://extraimago.com/image/jE8&lt;/a&gt; &lt;a href=&quot;\nhttp://extraimago.com/image/jEa&quot; rel=&quot;nofollow&quot; target=&quot;_NEW&quot;&gt;\nhttp://extraimago.com/image/jEa&lt;/a&gt; &lt;a href=&quot;\nhttp://extraimago.com/image/jEw&quot; rel=&quot;nofollow&quot; target=&quot;_NEW&quot;&gt;\nhttp://extraimago.com/image/jEw&lt;/a&gt; &lt;a href=&quot;\nhttp://extraimago.com/image/jE2&quot; rel=&quot;nofollow&quot; target=&quot;_NEW&quot;&gt;\nhttp://extraimago.com/image/jE2&lt;/a&gt; &lt;a href=&quot;\nhttp://extraimago.com/image/jEN&quot; rel=&quot;nofollow&quot; target=&quot;_NEW&quot;&gt;\nhttp://extraimago.com/image/jEN&lt;/a&gt;","torrent":{"xt":"urn:btih:3c2a399c438db5e7a20d8402716596d704694d77","amp;dn":"Robot.Revolution.2015.DVDRip.x264-MenaceIISociety","amp;tr":["udp%3A%2F%2Ftracker.openbittorrent.com%3A80","udp%3A%2F%2Fopen.demonii.com%3A1337","udp%3A%2F%2Ftracker.coppersurfer.tk%3A6969","udp%3A%2F%2Fexodus.desync.com%3A6969"],"infoHash":"3c2a399c438db5e7a20d8402716596d704694d77","infoHashBuffer":{"type":"Buffer","data":[60,42,57,156,67,141,181,231,162,13,132,2,113,101,150,215,4,105,77,119]},"announce":[],"urlList":[]}}